<svg width="158" height="100" viewBox="0 0 158 100" fill="none" xmlns="http://www.w3.org/2000/svg">
<path d="M124.398 99.8206C132.87 98.8794 148.096 96.2857 148.701 95.6807C149.938 94.4434 147.714 93.5988 141.962 93.1218L136.067 92.6329L139.781 89.3726C141.823 87.5794 143.494 85.4266 143.494 84.5885C143.494 83.7376 144.578 83.0621 145.949 83.0587C147.299 83.0553 150.195 82.5553 152.383 81.9474C157.09 80.64 158.907 76.409 156.096 73.3024C154.799 71.8696 154.406 68.8052 154.406 60.1288V48.8224L148.244 43.1337C142.637 37.9563 142.133 37.1166 142.642 33.793C143.306 29.4591 142.729 27.4132 140.843 27.4132C139.408 27.4132 135.855 13.5258 135.855 7.91555C135.855 2.60672 133.484 2.25034 91.17 1.19938C28.1491 -0.365883 7.93256 -0.393228 5.1741 1.08305C3.24023 2.11802 2.72391 3.35523 2.7084 6.99139C2.69761 9.52097 2.22264 21.657 1.65291 33.9604C1.08318 46.2638 0.478211 59.5103 0.308517 63.3972L0 70.4643L5.72884 71.7367C8.87971 72.4366 11.4577 72.6267 11.4577 72.1592C11.4577 71.6918 9.17285 70.9666 6.38027 70.5479L1.30285 69.7865L2.03802 51.055C3.90986 3.36187 3.87401 3.73193 6.75077 2.42118C8.61384 1.57231 24.4613 1.53916 62.5108 2.30454C91.7473 2.89265 119.105 3.38871 123.306 3.40691C132.211 3.44548 133.769 4.16928 134.151 8.44228C134.306 10.1739 134.743 13.5548 135.122 15.9555C135.809 20.3016 135.806 20.2993 134.42 15.4099L133.028 10.4994L122.984 10.1857C116.19 9.97345 112.94 10.2621 112.94 11.0776C112.94 11.773 113.833 11.9998 115.05 11.6135C116.518 11.1477 119.214 12.455 123.9 15.9048C127.607 18.6334 131.041 20.8659 131.533 20.8659C132.024 20.8659 133.198 21.6375 134.141 22.5807C135.699 24.1395 135.865 24.1147 135.964 22.3079C136.108 19.6791 137.82 24.892 137.82 27.9588C137.82 29.7272 137.638 29.6238 136.861 27.4132C136.099 25.2456 136.02 25.5259 136.474 28.7772C136.788 31.0278 136.636 32.8692 136.135 32.8692C135.634 32.8692 131.806 29.7497 127.628 25.9369C123.451 22.1242 119.67 18.919 119.226 18.8142C116.274 18.1175 115.112 17.0651 115.036 15.0203C114.989 13.7342 114.697 13.3107 114.389 14.0793C113.682 15.8384 117.161 31.8528 118.649 33.6876C119.374 34.5823 122.9 35.0516 128.896 35.0516C137.616 35.0516 138.043 34.9384 138.147 32.5964C138.213 31.1225 138.661 31.8639 139.267 34.4513C139.822 36.8219 141.123 39.7489 142.158 40.9557C144.021 43.129 144.011 43.1322 141.077 41.2832C139.448 40.2565 137.823 39.4164 137.466 39.4164C136.017 39.4164 138.286 41.563 141.351 43.0921C143.15 43.9894 144.339 44.266 143.993 43.7068C142.532 41.3422 145.819 42.9713 149.484 46.4282C153.025 49.7675 153.412 50.6699 153.109 54.8851C152.787 59.3553 152.587 59.6095 149.32 59.7129C146.844 59.7912 146.03 59.4061 146.436 58.3489C146.747 57.5387 147.931 56.8758 149.067 56.8758C150.543 56.8758 151.132 56.0969 151.132 54.1477V51.4197H130.945C119.413 51.4197 110.758 51.8493 110.758 52.4217C110.758 52.9728 110.46 54.2004 110.095 55.1497C109.579 56.4954 110.18 56.8758 112.823 56.8758C115.312 56.8758 116.223 57.3839 116.248 58.7854C116.267 59.8357 116.947 61.5695 117.757 62.6384C119.104 64.4132 119.292 64.258 119.932 60.849C120.765 56.408 122.308 55.8205 133.195 55.7995C140.476 55.7854 141.033 55.9626 143.289 59.014C144.602 60.7902 145.676 63.6839 145.676 65.4445C145.676 67.3568 146.371 68.9122 147.402 69.3079C150.045 70.3219 150.427 70.113 149.023 68.4215C148.011 67.202 148.131 66.6527 149.588 65.8372C150.606 65.2676 151.09 64.2379 150.664 63.5489C150.239 62.8599 149.433 62.5787 148.874 62.924C148.316 63.2693 147.859 63.0318 147.859 62.3962C147.859 60.7719 151.103 60.9498 151.659 62.6046C151.912 63.3548 152.379 65.7719 152.697 67.9759L153.276 71.9831L146.475 72.5821C136.407 73.469 126.958 74.1526 113.117 74.9956C105.094 75.4842 100.567 76.2109 100.24 77.0627C99.963 77.7852 98.5974 78.1587 97.2056 77.8926C95.3994 77.5473 94.322 76.2305 93.4415 73.2917C90.8429 64.6181 85.5652 61.3287 77.7222 63.4942C74.5654 64.3659 73.4223 65.5519 71.1997 70.2615C69.7175 73.4022 68.1577 77.0767 67.7335 78.4271C67.3093 79.7775 66.627 80.8784 66.2173 80.8736C64.6513 80.8553 39.1247 77.5721 35.9927 76.9862C33.3451 76.4909 32.3039 75.4081 30.665 71.4456C27.5636 63.9471 23.9084 60.1463 19.8175 60.1661C15.4363 60.1873 14.0584 61.0894 12.6172 64.8803C11.1637 68.703 11.1398 70.2955 12.5489 69.4247C13.2161 69.0123 13.6401 70.7045 13.6401 73.7793C13.6401 82.7038 17.7377 87.5861 25.6434 88.0809C28.9828 88.29 57.0616 93.0121 73.4813 96.126C76.6108 96.7195 80.1446 97.726 81.3341 98.3626C82.5237 98.9992 85.334 99.4439 87.5792 99.3507C89.8245 99.2574 98.045 99.4342 105.847 99.7434C113.649 100.053 121.997 100.087 124.398 99.8206ZM107.211 90.0901C97.0615 89.081 97.272 86.8183 107.612 85.7799C115.345 85.0034 115.394 85.0154 118.797 88.5181L122.215 92.0362L118.396 91.4293C116.295 91.0955 111.262 90.4928 107.211 90.0901ZM80.2194 90.7116C77.6564 89.3399 75.5309 83.0351 76.4274 79.4632C77.3907 75.6252 80.9284 72.1527 83.8753 72.1527C87.7437 72.1527 91.6119 77.0002 91.6119 81.8481C91.6119 89.744 86.2321 93.9295 80.2194 90.7116ZM89.5239 87.357C90.6436 85.5454 89.6386 85.2941 88.072 86.994C87.2981 87.8338 87.1464 88.5208 87.7348 88.5208C88.3232 88.5208 89.1283 87.9971 89.5239 87.357ZM83.1535 87.8264C82.7248 87.1107 83.3282 86.3466 84.5809 86.019C86.0678 85.6302 86.751 84.5282 86.751 82.5191C86.751 80.51 86.0678 79.4081 84.5809 79.0193C83.3873 78.7072 82.6882 77.8938 83.0272 77.2119C83.3663 76.5299 82.6242 77.1311 81.3781 78.548C80.1321 79.9649 79.1126 80.4968 79.1126 79.7302C79.1126 78.9635 78.8555 78.5933 78.5413 78.9075C78.2271 79.2217 78.2707 80.2625 78.6383 81.2204C79.1783 82.6275 79.6977 82.7178 81.3424 81.6907C83.7512 80.1864 85.117 81.1529 84.1486 83.6765C83.7509 84.7131 82.7702 85.2093 81.8314 84.849C79.6303 84.0044 79.7681 85.7177 82.0501 87.5688C83.0655 88.3925 83.5621 88.5084 83.1535 87.8264ZM91.0297 82.4282C90.9774 81.157 90.7188 80.8985 90.3704 81.7689C90.0552 82.5567 90.094 83.4978 90.4566 83.8604C90.8192 84.223 91.0771 83.5785 91.0297 82.4282ZM90.0247 78.8979C90.0247 77.5792 87.9544 76.0416 87.1977 76.7983C86.923 77.073 87.4467 77.9189 88.3615 78.678C89.3985 79.5387 90.0247 79.6215 90.0247 78.8979ZM81.4342 75.6991C82.7915 73.9684 82.7529 73.9298 81.0222 75.2871C79.9719 76.1108 79.1126 76.9701 79.1126 77.1967C79.1126 78.0948 80.0087 77.5168 81.4342 75.6991ZM68.496 85.6791C68.8586 85.3165 69.7998 85.2777 70.5875 85.593C71.458 85.9413 71.1994 86.1999 69.9282 86.2522C68.7779 86.2996 68.1334 86.0417 68.496 85.6791ZM32.4271 82.792C33.7934 80.8414 34.9817 79.0949 35.0678 78.9108C35.154 78.7267 40.4774 79.1671 46.8978 79.8896C54.7225 80.7701 58.758 81.6899 59.1378 82.6796C59.4494 83.4916 60.5111 84.236 61.4972 84.3338C65.335 84.7146 50.7328 85.9919 40.6148 86.1605L29.9429 86.3384L32.4271 82.792ZM102.663 83.4936C100.619 82.7092 100.337 77.7342 102.301 77.0991C103.051 76.8564 112.012 76.1266 122.215 75.4773C132.418 74.8279 144.006 74.0036 147.967 73.6455C154.093 73.0915 155.273 73.269 155.874 74.835C156.716 77.0277 154.877 80.8892 153.004 80.8656C152.16 80.855 152.273 80.4423 153.315 79.7302C154.49 78.9268 152.878 78.7008 147.595 78.9285C142.469 79.1494 140.081 78.832 139.718 77.8815C139.427 77.1181 137.621 76.5944 135.617 76.6921L132.036 76.8668L135.583 77.3069C137.657 77.5643 139.129 78.3718 139.129 79.2519C139.129 80.2294 140.754 80.9032 143.767 81.1746C146.901 81.4569 145.752 81.6811 140.22 81.8664C135.719 82.0172 131.139 82.3106 130.042 82.5185C128.683 82.776 128.238 82.4017 128.644 81.3438C129.326 79.5664 125.312 79.3299 114.191 80.4922C106.916 81.2526 105.365 82.6635 111.03 83.3666C113.809 83.7114 113.474 83.8445 109.483 83.9813C106.681 84.0774 103.612 83.8579 102.663 83.4936ZM119.214 77.9183C117.564 77.6683 114.863 77.6683 113.213 77.9183C111.562 78.1684 112.913 78.3729 116.214 78.3729C119.515 78.3729 120.865 78.1684 119.214 77.9183ZM18.3712 80.2566C16.0675 77.9529 15.6748 76.7591 16.1855 73.6119C16.9742 68.7523 18.6786 66.6966 21.9194 66.6966C24.3863 66.6966 27.6178 70.542 26.2774 71.8824C25.9287 72.2311 25.6434 71.9435 25.6434 71.2433C25.6434 70.5431 25.0296 69.9866 24.2794 70.0066C23.4824 70.0278 23.8227 70.8375 25.0978 71.9542C27.2979 73.8811 28.7406 77.2117 26.876 76.0593C26.3238 75.718 25.5905 76.1726 25.2464 77.0694C24.1603 79.8997 22.7279 78.8352 23.2092 75.5555C23.6539 72.5259 22.423 70.8341 19.4445 70.3814C17.6993 70.1161 18.8711 72.9241 20.8173 73.6709C22.8722 74.4594 22.8112 76.5175 20.733 76.5175C19.8327 76.5175 19.0961 77.024 19.0961 77.643C19.0961 79.4872 22.5073 80.2302 24.6967 78.8629C27.2197 77.2873 27.3375 78.4075 24.9287 81.0692C22.5482 83.6996 21.7103 83.5957 18.3712 80.2566ZM128.086 31.5052C127.371 30.1548 125.085 26.963 123.005 24.4123C120.926 21.8616 119.42 19.7747 119.66 19.7747C119.9 19.7747 123.259 22.9665 127.126 26.8675C132.951 32.745 133.747 33.9604 131.77 33.9604C130.409 33.9604 128.827 32.9063 128.086 31.5052ZM68.0232 73.7428C69.8516 69.7301 69.5027 68.874 67.5258 72.5219C66.6026 74.2255 66.0515 75.8234 66.301 76.073C66.5506 76.3225 67.3256 75.2739 68.0232 73.7428ZM110.485 72.5556C107.897 71.7926 108.039 70.0345 110.634 70.7131C111.767 71.0093 113.071 70.6419 113.531 69.8967C114.071 69.0233 113.921 68.8186 113.109 69.3205C110.785 70.7567 109.159 68.6752 111.352 67.0716C112.917 65.9274 113.076 65.3049 112.063 64.2919C110.007 62.2356 110.539 61.0467 112.94 62.3318C114.682 63.264 115.122 63.1617 115.122 61.8246C115.122 60.804 114.142 60.1494 112.613 60.1494C111.232 60.1494 109.611 59.6576 109.01 59.0565C108.28 58.3267 107.936 60.4068 107.973 65.3161C108.023 71.8448 108.274 72.6938 110.212 72.8936C111.908 73.0685 111.969 72.9932 110.485 72.5556ZM138.583 71.1857C141.715 70.5077 141.848 70.2467 141.644 65.1657C141.331 57.3309 140.807 56.5086 136.661 57.3434C134.718 57.7348 130.549 58.0753 127.399 58.1001L121.67 58.1452V65.1489V72.1527L128.49 72.0236C132.241 71.9526 136.783 71.5755 138.583 71.1857ZM71.2969 66.1043C73.1252 62.0916 72.7764 61.2356 70.7994 64.8835C69.8762 66.587 69.3251 68.185 69.5747 68.4345C69.8242 68.6841 70.5992 67.6355 71.2969 66.1043ZM99.2999 63.423C100.19 61.9831 98.885 59.9398 97.5877 60.7416C96.2623 61.5607 96.2709 64.5142 97.5987 64.5142C98.1635 64.5142 98.929 64.0232 99.2999 63.423ZM54.9337 60.1494C54.9337 58.649 54.686 58.0352 54.3833 58.7854C54.0806 59.5356 54.0806 60.7632 54.3833 61.5134C54.686 62.2636 54.9337 61.6498 54.9337 60.1494ZM55.0199 54.0568C54.9675 52.7856 54.7089 52.5271 54.3606 53.3975C54.0454 54.1853 54.0841 55.1264 54.4467 55.489C54.8093 55.8516 55.0672 55.2071 55.0199 54.0568ZM49.1044 53.658C46.4213 52.4374 4.88153 47.8113 4.05208 48.6407C3.72395 48.9688 3.98582 49.2373 4.634 49.2373C5.95893 49.2373 41.5527 53.2932 47.4675 54.1182C50.344 54.5194 50.7481 54.4058 49.1044 53.658ZM55.0199 47.5096C54.9675 46.2384 54.7089 45.9798 54.3606 46.8503C54.0454 47.638 54.0841 48.5792 54.4467 48.9418C54.8093 49.3044 55.0672 48.6599 55.0199 47.5096ZM76.2027 40.8714C77.5706 39.5034 76.9326 35.286 75.2606 34.6444C73.9334 34.1351 73.6435 34.7824 73.8468 37.8013C74.0967 41.5113 74.7332 42.3408 76.2027 40.8714ZM108.263 37.5177C104.79 37.3004 99.3882 37.3025 96.2593 37.5221C93.1303 37.7418 95.9717 37.9195 102.574 37.917C109.175 37.9146 111.735 37.7349 108.263 37.5177ZM86.751 32.388C86.751 29.1225 86.3279 26.1892 85.8107 25.8696C85.2935 25.55 84.9253 27.1005 84.9923 29.3152C85.0869 32.4383 84.6538 33.4355 83.0626 33.7586C81.9341 33.9877 80.5913 33.513 80.0784 32.7038C79.451 31.7136 79.1405 32.3922 79.1293 34.7788C79.1136 38.1076 79.347 38.3252 82.9318 38.3252H86.751V32.388ZM113.55 33.641C113.848 32.8652 113.594 30.2872 112.987 27.9122C111.897 23.6495 111.887 23.6431 112.265 27.4132C112.817 32.9202 112.124 33.9604 107.904 33.9604C105.274 33.9604 103.964 33.386 103.551 32.0508C101.934 26.8276 99.564 22.8234 94.4543 16.6834C89.5274 10.7631 89.1393 9.95382 91.2269 9.95382C92.532 9.95382 95.6929 11.8831 98.251 14.2411C100.809 16.5992 104.986 19.5914 107.532 20.8906L112.162 23.2527L111.46 19.7405C111.074 17.8088 110.758 15.3426 110.758 14.2602C110.758 10.0559 107.846 8.86262 97.5852 8.86262H87.8422L87.9107 12.9546C87.9484 15.2053 88.5622 20.7251 89.2747 25.221C90.5121 33.0282 90.7173 33.4267 93.8439 34.0943C100.145 35.4399 112.973 35.1448 113.55 33.641ZM73.1745 30.5839C73.6315 29.8445 73.5381 29.54 72.9633 29.8952C72.3966 30.2454 70.557 28.3571 68.8753 25.699C64.8306 19.3056 64.0235 19.4814 67.804 25.9323C69.4599 28.758 70.1474 30.7901 69.3583 30.5271C67.5081 29.9104 57.8841 12.1362 59.4004 12.1362C60.0393 12.1362 60.562 11.5851 60.562 10.9114C60.562 10.03 60.1311 10.0443 59.0247 10.9625C57.8908 11.9036 57.5329 14.7302 57.6607 21.7354L57.834 31.2324L65.0946 31.5709C69.9389 31.7968 72.6279 31.4683 73.1745 30.5839ZM79.4589 28.7772C79.9495 27.4268 81.0543 26.3219 81.9141 26.3219C83.8927 26.3219 83.8981 26.3789 81.295 19.7747C78.3327 12.2593 78.6262 10.4982 81.8406 16.5011C84.7859 22.0015 85.1117 21.3232 83.387 13.2812C82.0244 6.92784 79.5536 5.92392 78.5548 11.3178C77.5652 16.6619 78.3506 31.828 79.4589 28.7772ZM74.4341 18.6835L74.2021 10.4994L67.9277 10.1722C64.4768 9.99218 61.6533 10.2562 61.6533 10.7588C61.6533 11.2614 64.1545 14.1094 67.2115 17.0877C70.2685 20.066 73.1964 23.4848 73.7179 24.6851C74.3433 26.1247 74.5871 24.0818 74.4341 18.6835ZM56.1111 20.2294C56.0587 18.9582 55.8001 18.6996 55.4518 19.5701C55.1366 20.3578 55.1753 21.299 55.5379 21.6616C55.9005 22.0242 56.1584 21.3797 56.1111 20.2294ZM133.582 7.37169C133.332 7.15185 122.57 6.71041 109.666 6.39075C96.1399 6.05562 88.5158 6.18441 91.6615 6.69487C96.9875 7.55911 134.484 8.16452 133.582 7.37169ZM54.7651 4.77231C45.2751 4.59046 30.0527 4.59084 20.9377 4.77315C11.8226 4.95547 19.5872 5.10426 38.1923 5.10379C56.7974 5.10333 64.2551 4.95416 54.7651 4.77231Z" fill="black" fill-opacity="0.25"/>
</svg>
